<?xml version="1.0" encoding="utf-8"?>
<!-- Generator: Adobe Illustrator 26.0.0, SVG Export Plug-In . SVG Version: 6.00 Build 0)  -->
<svg version="1.1" id="Layer_1" xmlns="http://www.w3.org/2000/svg" xmlns:xlink="http://www.w3.org/1999/xlink" x="0px" y="0px"
	 viewBox="0 0 50 50" style="enable-background:new 0 0 50 50;" xml:space="preserve">
<polygon points="47.9,8.01 30.34,26.43 22.79,28.43 24.42,20.79 41.97,2.37 "/>
<g>
	<path d="M44.1,10.07C43.38,8.28,42,6.84,40.27,6.04l-4.1,4.31h0.97c1.38,0,2.5,1.12,2.5,2.5v1.9L44.1,10.07z"/>
	<path d="M39.64,20.54v19.67c0,1.38-1.12,2.5-2.5,2.5H9.77c-1.38,0-2.5-1.12-2.5-2.5V12.85c0-1.38,1.12-2.5,2.5-2.5h20.87l4.76-5
		H9.77c-4.14,0-7.5,3.36-7.5,7.5v27.37c0,4.14,3.36,7.5,7.5,7.5h27.37c4.14,0,7.5-3.36,7.5-7.5V15.3L39.64,20.54z"/>
</g>
</svg>
